<svg id="Layer_1" data-name="Layer 1" xmlns="http://www.w3.org/2000/svg" viewBox="0 0 472.76 309.57">
<title>dinnaeken-games-logo</title>
<path class="logo-gamepad" d="M294.09,181.48c-40.07-2.21-38.46,35.34-38.46,35.34H172.29s1.6-37.55-38.47-35.34S-8.82,325.05,44.07,380.26s78.53-11,99.37-35.34S214,320.63,214,320.63s49.68,0,70.52,24.29,46.47,90.56,99.36,35.34S334.16,183.69,294.09,181.48ZM171.78,276.24a9.53,9.53,0,0,1-9.53,9.53H148.38a9.54,9.54,0,0,0-9.54,9.54v13.87a9.54,9.54,0,0,1-9.54,9.54h-6.69a9.54,9.54,0,0,1-9.53-9.54V295.31a9.54,9.54,0,0,0-9.54-9.54H89.67a9.54,9.54,0,0,1-9.54-9.53v-6.69A9.54,9.54,0,0,1,89.67,260h13.87a9.54,9.54,0,0,0,9.54-9.54V236.6a9.53,9.53,0,0,1,9.53-9.53h6.69a9.53,9.53,0,0,1,9.54,9.53v13.87a9.54,9.54,0,0,0,9.54,9.54h13.87a9.54,9.54,0,0,1,9.53,9.54Z" transform="translate(-29.24 -92.09)"/>
<path class="logo-games-qmark" d="M347.11,253.72c-3.35-.59-4.93.52-6.12,3.42l-6.9,20.94-64.38-11.25L280,236.12c8.35-22,28.09-34.14,58.27-28.87l50,8.74c14.76,2.57,27.68-19.59,29.38-29.32,1.23-7-3.45-9.93-14.18-11.81l-98.31-17.18,23.23-63.33,91.88,16.06c64.38,11.25,84.25,40,78.92,70.47-8.56,49-49.12,90.83-119.54,78.52ZM274,358.82c-21.13-3.69-34.28-17.4-30.88-36.85,4.45-25.48,30.4-37.53,55.89-33.08,20.79,3.63,34.16,18.07,30.82,37.18C325.28,352.23,299.5,363.27,274,358.82Z" transform="translate(-29.24 -92.09)"/>
</svg>