<svg id="Layer_1" data-name="Layer 1" xmlns="http://www.w3.org/2000/svg" viewBox="0 0 680.95 88.58">
<defs>
    <style>
        .cls-1{fill:#98c1d9;stroke:#ee6c4d;stroke-miterlimit:10;}
        .logo-games{fill:#ee6c4d;}
    </style>
</defs>
<title>dinnae-ken-games-text</title>
<polygon class="cls-1" points="96.64 38.97 80.01 38.97 77.53 53.01 94.17 53.01 96.64 38.97"/>
<polygon class="cls-1" points="364.05 53.01 377.38 38.97 320.49 38.97 317.99 53.01 334.6 53.01 364.05 53.01"/>
<polygon class="cls-1" points="521.16 53.01 534.48 38.97 477.59 38.97 475.1 53.01 491.7 53.01 521.16 53.01"/>
<path class="cls-1" d="M287.68,266.37c.34-.33.76-.72,1.24-1.15h-1C287.85,265.6,287.76,266,287.68,266.37Z" transform="translate(135.84 -208.1)"/>
<path class="cls-1" d="M289.62,257.51l1.87-10.44h-16.7l-2.5,14h16.58C289.14,259.92,289.4,258.72,289.62,257.51Z" transform="translate(135.84 -208.1)"/>
<path class="cls-1" d="M335.13,247.07H311.08l-14.33,11.52c-1.15.93-2.16,1.76-3.08,2.52h21.27Z" transform="translate(135.84 -208.1)"/>
<polygon class="cls-1" points="597.55 39.04 582.43 39.04 580.05 53.01 595.12 53.01 597.55 39.04"/>
<path class="cls-1" d="M419.08,249a7.67,7.67,0,0,0-6.12-2.81c-4.9,0-9.72,2.95-10.95,10.15l-.83,4.75H430.3Z" transform="translate(135.84 -208.1)"/>
<polygon class="cls-1" points="163.18 39.04 148.06 39.04 145.68 53.01 160.75 53.01 163.18 39.04"/>
<path class="cls-1" d="M-15.3,249a7.64,7.64,0,0,0-6.12-2.81c-4.89,0-9.72,2.95-10.94,10.15l-.84,4.75H-4.08Z" transform="translate(135.84 -208.1)"/>
<polygon class="cls-1" points="229.99 39.04 214.87 39.04 212.49 53.01 227.56 53.01 229.99 39.04"/>
<path class="cls-1" d="M51.52,249a7.66,7.66,0,0,0-6.12-2.81c-4.9,0-9.72,2.95-10.95,10.15l-.83,4.75H62.74Z" transform="translate(135.84 -208.1)"/>
<path class="cls-1" d="M148.36,252.33c-1.8-3.46-4.53-6.12-9.57-6.12s-8.93,2.88-11.81,6.12l-7.86,8.78H153Z" transform="translate(135.84 -208.1)"/>
<path class="cls-1" d="M-69.2,261.11c-3-8.54-12.09-14-24.72-14h-32.81l-2.47,14h60Z" transform="translate(135.84 -208.1)"/>
<path class="cls-1" d="M-68.14,267.52a19.34,19.34,0,0,0-.13-2.3h-17.8a7.11,7.11,0,0,1,1.15,4,11.61,11.61,0,0,1-2.44,7.63h17.22A23,23,0,0,0-68.14,267.52Z" transform="translate(135.84 -208.1)"/>
<path class="cls-1" d="M-132.79,281.42l-2.46,13.82h32.84c12.56,0,23.69-5.51,29.66-13.82Z" transform="translate(135.84 -208.1)"/>
<polygon class="cls-1" points="22.63 57.12 5.92 57.12 3.85 68.78 20.56 68.78 22.63 57.12"/>
<polygon class="cls-1" points="93.44 57.12 76.81 57.12 74.75 68.78 91.39 68.78 93.44 57.12"/>
<polygon class="cls-1" points="71.51 87.14 88.15 87.14 90.58 73.32 73.95 73.32 71.51 87.14"/>
<path class="cls-1" d="M286,276.88h1.37a11.11,11.11,0,0,1-1.14-1.73C286.16,275.71,286.08,276.29,286,276.88Z" transform="translate(135.84 -208.1)"/>
<polygon class="cls-1" points="314.38 73.32 311.92 87.14 358.29 87.14 371.47 73.32 331.07 73.32 314.38 73.32"/>
<polygon class="cls-1" points="359.88 68.78 371.18 57.12 317.26 57.12 315.19 68.78 331.87 68.78 359.88 68.78"/>
<polygon class="cls-1" points="516.98 68.78 528.29 57.12 474.37 57.12 472.29 68.78 488.97 68.78 516.98 68.78"/>
<polygon class="cls-1" points="471.48 73.32 469.02 87.14 515.4 87.14 528.57 73.32 488.18 73.32 471.48 73.32"/>
<path class="cls-1" d="M292.43,282.86l10.66,12.38h25.13l-13.89-13.82H291.19Z" transform="translate(135.84 -208.1)"/>
<path class="cls-1" d="M266.22,295.24h16.7l2.38-13.39c0-.14.05-.29.07-.43H268.68Z" transform="translate(135.84 -208.1)"/>
<path class="cls-1" d="M309.76,276.88l-1.64-1.59a6.5,6.5,0,0,1,.84-10l.1-.07h-37.5l-2.08,11.66Z" transform="translate(135.84 -208.1)"/>
<polygon class="cls-1" points="531.02 87.14 546.14 87.14 548.54 73.32 533.45 73.32 531.02 87.14"/>
<path class="cls-1" d="M437.87,293.3a7.49,7.49,0,0,0,6.12,2.88c4.83,0,9.65-2.95,10.95-10.15l.8-4.61h-29Z" transform="translate(135.84 -208.1)"/>
<polygon class="cls-1" points="558.36 68.78 592.37 68.78 594.4 57.12 579.35 57.12 577.89 65.68 569.95 57.12 536.3 57.12 534.25 68.78 549.33 68.78 550.75 60.64 558.36 68.78"/>
<polygon class="cls-1" points="116.37 60.64 123.98 68.78 158 68.78 160.03 57.12 144.98 57.12 143.52 65.68 135.57 57.12 101.92 57.12 99.87 68.78 114.96 68.78 116.37 60.64"/>
<path class="cls-1" d="M3.5,293.3a7.49,7.49,0,0,0,6.12,2.88c4.82,0,9.65-2.95,10.94-10.15l.81-4.61h-29Z" transform="translate(135.84 -208.1)"/>
<polygon class="cls-1" points="96.64 87.14 111.76 87.14 114.17 73.32 99.08 73.32 96.64 87.14"/>
<polygon class="cls-1" points="183.19 60.64 190.8 68.78 224.81 68.78 226.85 57.12 211.79 57.12 210.33 65.68 202.39 57.12 168.74 57.12 166.69 68.78 181.77 68.78 183.19 60.64"/>
<path class="cls-1" d="M70.31,293.3a7.5,7.5,0,0,0,6.12,2.88c4.83,0,9.65-2.95,10.95-10.15l.8-4.61h-29Z" transform="translate(135.84 -208.1)"/>
<polygon class="cls-1" points="163.46 87.14 178.58 87.14 180.98 73.32 165.89 73.32 163.46 87.14"/>
<path class="cls-1" d="M135.57,266.05,141,276.88h20.15l-6.08-11.66H115.45L105,276.88h19.77l9.83-11A.58.58,0,0,1,135.57,266.05Z" transform="translate(135.84 -208.1)"/>
<polygon class="cls-1" points="249.64 87.14 306.6 87.14 299.39 73.32 262.17 73.32 249.64 87.14"/>
<polygon class="cls-1" points="224.44 87.14 244.17 87.14 256.57 73.32 236.81 73.32 224.44 87.14"/>
<path class="logo-games" d="M415.78,213.72c-.85,2.14-2.69,4.25-6.15,2.94.47-.45,2.8-4.14,2.38-4.17-6.7.23-14.23,7.67-18.21,12.12-.92,1-1.61,3.13.92,1.43,4.67-1.18,15.22-8.55,16.26-8.13,4.23,1.69,3.85,6.37,1.84,11.75,7.35-.61,14.54-1,20.12-2.68,2.65-1.28,5.07-1.66,6.6-1a12.44,12.44,0,0,1,4.62,3.2,3.1,3.1,0,0,1,.86,2.12c1.23-.93,2.43-1.8,3.59-2.76,1.42-.35,3.11,1.82,3.37,2.42a1.89,1.89,0,0,1-.7,1.92c-1,.88-2.9,2.46-3.65,2.38a30.37,30.37,0,0,0-5.11,6.2c-2.73,4.52-2.1,6.13,2.43,5.66,5-.5,15.12-3.33,20.16-6.15,1.56.7,1,2.11-.78,2.82-5.1,2.08-17.46,6.16-23,6.36-2.45.08-6.67-1.46-3.81-7.36a41.86,41.86,0,0,1,4.77-6.76c.29-.38.09-.6-.24-.31a119.48,119.48,0,0,1-12.93,8c-4.32,2.1-8.65-1.12-5.82-6.6a24.88,24.88,0,0,1,4.95-6.69c-4.73.81-10.53,1.12-16.5,1.64-4.75,9.19-20.69,25.77-27.26,27.62-.79.18-.16.22-1.08.56a5,5,0,0,1-3.74-.43c-3.31-1.32-6.15-5.23-2.72-13.81,4.86-12.13,18.45-14.65,32.11-15.94,1.63-4.6,1.86-9.06-.74-7.54a59.79,59.79,0,0,1-11.22,5.1c-1.71,2.52-6.15,3.65-7.38,3.16-2.08-.83-1.51-3.66.8-6.43,5.62-8.7,19.91-19.19,22.3-15.39C416.59,209.56,416.4,212.19,415.78,213.72ZM408,232.37c-12.31,1.26-24.43,4-28.55,14.31-1.71,4.29-1.56,7.27-.73,9.66a8.61,8.61,0,0,0,2,1.07C387,259.92,403.49,241.43,408,232.37Zm35.17.21-.37-.14c-1-.4-1.19-2.54-3.95-3.64a4.46,4.46,0,0,0-3.06.19c-3.52,1.51-6.9,5-9.12,9.29-1.58,3.06-.92,3.54.76,3.08C430.66,240.5,437.17,236.85,443.21,232.58Z" transform="translate(135.84 -208.1)"/>
<path class="logo-games" d="M473.14,237.74a19.72,19.72,0,0,1-2.33,2.62c-2.82.65-8.47,6.78-12.09,10.3-1,1-.54,1.35.13.76.88-.78,13-8.8,16.87-10.73.28-.17.38-.41.9-.28.78.17,4,2,1.8,7.05-.25.61-.39.27-.66.94s-2.46,5.42-3,6.77c-.34.85,0,.79.52.48,3.82-2.44,8.69-5.9,12.54-7.35,1.41-.5,1.47-.12,2.31.08,1.67.45,1.56,3.39,1.28,3.92s-.62.47-.53,1.14a1.93,1.93,0,0,1-.3,1.8,84.81,84.81,0,0,0-5,10.28c-.44,1.46.06,1.8,1.32,1.67a31.08,31.08,0,0,0,6.57-1.85c.51.49.34,1.27-1.17,2-2.3,1.14-6.34,3.08-8.49,2.22-1.16-.47-2.73-1.88-1.36-4.6.16-.22.25.1.41-.12.9-3.69,6.62-12.63,5.63-14.09-9.69,4.51-12.67,10-14.54,10.24-.68.09-.76-.94-2.76-.39-.93-.87-2.12-2-.12-4.32.59-2.89,4.64-9.3,4.73-12.53-2.56-.17-12.83,5.95-19.63,13.54a1,1,0,0,1-1.81.06c-1.54.3-3.83-2-1.28-3.36,2.52-4.54,12.84-14.34,17.42-20.26C471.28,233.87,473.85,236,473.14,237.74Z" transform="translate(135.84 -208.1)"/>
<path class="logo-games" d="M528.86,269.56c-4.71,2.53-18.69,8.52-28.61,5.4-6.54-.34-5.5-6.68-4.05-9.58,2.94-5.93,10.27-10.39,17.44-11.79a1.29,1.29,0,0,1,1.63.72c.23.31.64-.17,1.13,0,1.22.49,1.87,4.73,1.16,6.86a3,3,0,0,1-1.91,1.94c-.17.07-.23.76-.86,1.08-3.2,1.77-8.44,3.51-15.69,4.38-.9,3.33,1.51,4.23,6.93,4.55,6,.39,14.55-1.21,22.44-5.09C529,268.19,530.22,268.83,528.86,269.56ZM500.13,266c4.6-.3,13.58-2.67,15.22-6.42.25-.61-1.11-2.37-1.6-2.56C510.93,255.92,503.43,260.1,500.13,266Z" transform="translate(135.84 -208.1)"/>
<path class="logo-games" d="M525.89,282.66c2.88,1.16,4.65,1,5.12.7s.73-.92.2-1.91c-1.48-2.87-4.21-6.52-5.92-11-1.86-1-.46-5.59,1.5-5.87,5.34-.92,12.93-2.29,17-.67a1.72,1.72,0,0,1,1,.9,5.61,5.61,0,0,1,0,3.84c-.3.74-.77,1.05-1.15.4-2.64-1.41-11.34-1-14.78,0-2,3.19,4.42,9,5.93,13.25,1.07,3-.11,4.72-2.09,4.85-6.11.54-13.75-6.14-16.15-10.44-.59-1,.3-1.09.6-.61A23.32,23.32,0,0,0,525.89,282.66Z" transform="translate(135.84 -208.1)"/>
</svg>