<svg class="logo" id="logo-design" data-name="Layer 1" xmlns="http://www.w3.org/2000/svg" viewBox="0 0 287.29 212.74">
<title>dinnaeken-design-logo</title>
<path class="logo-screen" d="M195.32,48.72H12.06A10.81,10.81,0,0,0,1.25,59.53V187.09A10.81,10.81,0,0,0,12.06,197.9H88.69a7.4,7.4,0,0,1-7.4,7.41h-9.6a8.6,8.6,0,0,0-8.59,8.59h81.19a8.6,8.6,0,0,0-8.6-8.59H126.1a7.41,7.41,0,0,1-7.41-7.41h76.63a10.81,10.81,0,0,0,10.82-10.81V59.53A10.81,10.81,0,0,0,195.32,48.72ZM104.43,186.29a4.67,4.67,0,1,1,3.87-3.87A4.68,4.68,0,0,1,104.43,186.29ZM181.69,169h-156V65h156Z" transform="translate(-1.25 -1.16)"/>
<path class="logo-qmark" d="M203.52,90a2.59,2.59,0,0,0-3.33,1.85l-3.74,11.38-35-6.11L167.1,80.4c4.53-12,15.25-18.54,31.63-15.67l27.13,4.74c8,1.4,15-10.64,16-15.92.67-3.82-1.88-5.39-7.7-6.41l-53.39-9.33L193.35,3.42l49.89,8.72c35,6.11,45.74,21.69,42.85,38.26C281.44,77,259.42,99.73,221.18,93ZM163.83,147c-11.47-2-18.61-9.44-16.77-20,2.42-13.84,16.51-20.39,30.35-18,11.29,2,18.55,9.81,16.74,20.19C191.67,143.45,177.67,149.44,163.83,147Z" transform="translate(-1.25 -1.16)"/>
</svg>