<svg class="logo" xmlns="http://www.w3.org/2000/svg" viewBox="0 0 681.57 102.13">

<filter id="glow">
    <feGaussianBlur stdDeviation="2.5" result="coloredBlur"/>
    <feMerge>
        <feMergeNode in="coloredBlur"/>
        <feMergeNode in="SourceGraphic"/>
    </feMerge>
</filter>
<filter id="extra-glow" x="-5000%" y="-5000%" width="10000%" height="10000%">
    <feFlood result="flood" flood-color="#EE6C4D" flood-opacity="1"></feFlood>
    <feComposite in="flood" result="mask" in2="SourceGraphic" operator="in"></feComposite>
    <feMorphology in="mask" result="dilated" operator="dilate" radius="2"></feMorphology>
    <feGaussianBlur in="dilated" result="blurred" stdDeviation="5"></feGaussianBlur>
    <feMerge>
        <feMergeNode in="blurred"></feMergeNode>
        <feMergeNode in="SourceGraphic"></feMergeNode>
    </feMerge>
</filter>
<title>dinnaeken-design-txt</title>
<g id="txt-dinnaeken">
    <polygon class="logo-txt-dinnaeken" points="96.64 49.65 80.01 49.65 77.53 63.69 94.17 63.69 96.64 49.65"/>
    <polygon class="logo-txt-dinnaeken" points="364.05 63.69 377.38 49.65 320.49 49.65 317.99 63.69 334.6 63.69 364.05 63.69"/>
    <polygon class="logo-txt-dinnaeken" points="521.16 63.69 534.48 49.65 477.59 49.65 475.1 63.69 491.7 63.69 521.16 63.69"/>
    <path class="logo-txt-dinnaeken" d="M425.28,70.56l1.24-1.15h-1C425.46,69.8,425.36,70.2,425.28,70.56Z" transform="translate(-1.76 -1.62)"/>
    <path class="logo-txt-dinnaeken" d="M427.23,61.71l1.87-10.44H412.39l-2.5,14h16.59C426.74,64.12,427,62.91,427.23,61.71Z" transform="translate(-1.76 -1.62)"/>
    <path class="logo-txt-dinnaeken" d="M472.73,51.27H448.68L434.35,62.79c-1.14.92-2.16,1.76-3.07,2.52h21.26Z" transform="translate(-1.76 -1.62)"/>
    <polygon class="logo-txt-dinnaeken" points="597.55 49.72 582.43 49.72 580.05 63.69 595.12 63.69 597.55 49.72"/>
    <path class="logo-txt-dinnaeken" d="M556.68,53.21a7.66,7.66,0,0,0-6.12-2.81c-4.9,0-9.72,3-10.94,10.15l-.84,4.76H567.9Z" transform="translate(-1.76 -1.62)"/>
    <polygon class="logo-txt-dinnaeken" points="163.18 49.72 148.06 49.72 145.68 63.69 160.75 63.69 163.18 49.72"/>
    <path class="logo-txt-dinnaeken" d="M122.31,53.21a7.66,7.66,0,0,0-6.12-2.81c-4.9,0-9.72,3-11,10.15l-.83,4.76h29.12Z" transform="translate(-1.76 -1.62)"/>
    <polygon class="logo-txt-dinnaeken" points="229.99 49.72 214.87 49.72 212.49 63.69 227.56 63.69 229.99 49.72"/>
    <path class="logo-txt-dinnaeken" d="M189.12,53.21A7.64,7.64,0,0,0,183,50.4c-4.89,0-9.72,3-10.94,10.15l-.84,4.76h29.12Z" transform="translate(-1.76 -1.62)"/>
    <path class="logo-txt-dinnaeken" d="M286,56.52c-1.8-3.45-4.54-6.12-9.58-6.12s-8.93,2.88-11.81,6.12l-7.86,8.79h33.83Z" transform="translate(-1.76 -1.62)"/>
    <path class="logo-txt-dinnaeken" d="M68.41,65.31c-3-8.54-12.1-14-24.72-14H10.88l-2.48,14h60Z" transform="translate(-1.76 -1.62)"/>
    <path class="logo-txt-dinnaeken" d="M69.47,71.72a21.74,21.74,0,0,0-.13-2.31H51.53a7.14,7.14,0,0,1,1.16,4,11.56,11.56,0,0,1-2.45,7.64H67.46A23.07,23.07,0,0,0,69.47,71.72Z" transform="translate(-1.76 -1.62)"/>
    <path class="logo-txt-dinnaeken" d="M4.81,85.61,2.36,99.44H35.19c12.57,0,23.7-5.52,29.66-13.83Z" transform="translate(-1.76 -1.62)"/>
    <polygon class="logo-txt-dinnaeken" points="22.63 67.8 5.92 67.8 3.85 79.46 20.56 79.46 22.63 67.8"/>
    <polygon class="logo-txt-dinnaeken" points="93.44 67.8 76.81 67.8 74.75 79.46 91.39 79.46 93.44 67.8"/>
    <polygon class="logo-txt-dinnaeken" points="71.51 97.82 88.15 97.82 90.58 84 73.95 84 71.51 97.82"/>
    <path class="logo-txt-dinnaeken" d="M423.61,81.08H425a11.11,11.11,0,0,1-1.14-1.73C423.76,79.9,423.69,80.48,423.61,81.08Z" transform="translate(-1.76 -1.62)"/>
    <polygon class="logo-txt-dinnaeken" points="314.38 84 311.92 97.82 358.29 97.82 371.47 84 331.07 84 314.38 84"/>
    <polygon class="logo-txt-dinnaeken" points="359.88 79.46 371.18 67.8 317.26 67.8 315.19 79.46 331.87 79.46 359.88 79.46"/>
    <polygon class="logo-txt-dinnaeken" points="516.98 79.46 528.29 67.8 474.37 67.8 472.29 79.46 488.97 79.46 516.98 79.46"/>
    <polygon class="logo-txt-dinnaeken" points="471.48 84 469.02 97.82 515.4 97.82 528.57 84 488.18 84 471.48 84"/>
    <path class="logo-txt-dinnaeken" d="M430,87.05l10.66,12.39h25.13L451.93,85.61H428.79Z" transform="translate(-1.76 -1.62)"/>
    <path class="logo-txt-dinnaeken" d="M403.82,99.44h16.71L422.91,86c0-.14,0-.28.07-.43h-16.7Z" transform="translate(-1.76 -1.62)"/>
    <path class="logo-txt-dinnaeken" d="M447.36,81.08c-.58-.57-1.12-1.11-1.63-1.6a6.49,6.49,0,0,1,.84-10l.1-.07H409.16l-2.07,11.67Z" transform="translate(-1.76 -1.62)"/>
    <polygon class="logo-txt-dinnaeken" points="531.02 97.82 546.14 97.82 548.54 84 533.45 84 531.02 97.82"/>
    <path class="logo-txt-dinnaeken" d="M575.47,97.49a7.5,7.5,0,0,0,6.13,2.88c4.82,0,9.64-3,10.94-10.15l.8-4.61h-29Z" transform="translate(-1.76 -1.62)"/>
    <polygon class="logo-txt-dinnaeken" points="558.36 79.46 592.37 79.46 594.4 67.8 579.35 67.8 577.89 76.36 569.95 67.8 536.3 67.8 534.25 79.46 549.33 79.46 550.75 71.32 558.36 79.46"/>
    <polygon class="logo-txt-dinnaeken" points="116.37 71.32 123.98 79.46 158 79.46 160.03 67.8 144.98 67.8 143.52 76.36 135.57 67.8 101.92 67.8 99.87 79.46 114.96 79.46 116.37 71.32"/>
    <path class="logo-txt-dinnaeken" d="M141.1,97.49a7.49,7.49,0,0,0,6.12,2.88c4.83,0,9.65-3,10.95-10.15l.8-4.61H130Z" transform="translate(-1.76 -1.62)"/>
    <polygon class="logo-txt-dinnaeken" points="96.64 97.82 111.76 97.82 114.17 84 99.08 84 96.64 97.82"/>
    <polygon class="logo-txt-dinnaeken" points="183.19 71.32 190.8 79.46 224.81 79.46 226.85 67.8 211.79 67.8 210.33 76.36 202.39 67.8 168.74 67.8 166.69 79.46 181.77 79.46 183.19 71.32"/>
    <path class="logo-txt-dinnaeken" d="M207.92,97.49a7.49,7.49,0,0,0,6.12,2.88c4.82,0,9.65-3,10.94-10.15l.81-4.61h-29Z" transform="translate(-1.76 -1.62)"/>
    <polygon class="logo-txt-dinnaeken" points="163.46 97.82 178.58 97.82 180.98 84 165.89 84 163.46 97.82"/>
    <path class="logo-txt-dinnaeken" d="M273.17,70.24l5.45,10.84h20.16l-6.09-11.67H253.05L242.62,81.08H262.4l9.82-11A.58.58,0,0,1,273.17,70.24Z" transform="translate(-1.76 -1.62)"/>
    <polygon class="logo-txt-dinnaeken" points="249.64 97.82 306.6 97.82 299.39 84 262.17 84 249.64 97.82"/>
    <polygon class="logo-txt-dinnaeken" points="224.44 97.82 244.17 97.82 256.57 84 236.81 84 224.44 97.82"/>
</g>
<g id="txt-design">
    <path class="logo-txt-design" d="M565.3,13.86c2.82-2.78,5.48-5.34,7.75-7.28,2.77-3.37,4-5.36,5.16-4.9,1.35.54,1.91,3.4,1.28,4.78-1.28,2.33-5.5,5.41-7.83,7a11.15,11.15,0,0,1-2.58,1.31c-4.45,3.13-17.51,16.74-20.25,23.6-1.2,3-.4,4.54,4.18,3.59,5.27-1.09,11.45-3.59,21-8a2.59,2.59,0,0,1,.95-.05c.49.2.36.86-.09,1.1-6.75,3.56-15.75,7.92-21.86,9.17-7.28,1.49-8.63-1.18-6.79-5.78,1.71-4.28,6.19-10.31,11.3-16.16-6.67,4.23-14,8.92-20.37,11.83-2.1,1.86-6,2.57-8.15,1.71-4.59-1.84-2.56-6.21-.08-9.2,5.92-7.16,11-8.09,14.18-6.84,2.14.86,3.71,4.76,3.08,7.21A172.62,172.62,0,0,0,565.3,13.86ZM543.39,28.48a6.13,6.13,0,0,1-2.26-5.38c-1.34-.54-6.71,1.86-9.47,4.67-5.33,5.32-1.34,6.71,4.93,4C538.9,30.81,541.14,29.64,543.39,28.48Z" transform="translate(-1.76 -1.62)"/>
    <path class="logo-txt-design" d="M596,45.55c-4.71,2.52-18.7,8.51-28.61,5.4-6.54-.35-5.5-6.68-4-9.59,2.94-5.93,10.27-10.39,17.44-11.78a1.29,1.29,0,0,1,1.63.72c.23.31.64-.17,1.12,0,1.23.5,1.88,4.73,1.17,6.87a3,3,0,0,1-1.91,1.93c-.18.08-.24.76-.86,1.08-3.2,1.78-8.45,3.52-15.69,4.39-.91,3.33,1.51,4.22,6.92,4.54,6,.4,14.56-1.21,22.44-5.09C596.11,44.17,597.35,44.81,596,45.55ZM567.26,42c4.6-.29,13.58-2.67,15.22-6.42.25-.61-1.11-2.36-1.6-2.56C578.06,31.9,570.56,36.08,567.26,42Z" transform="translate(-1.76 -1.62)"/>
    <path class="logo-txt-design" d="M604.82,37.14c2.19.59,4.46,3.78,3.95,5.06a3.76,3.76,0,0,1-2,1.71c-.91-1.65-2-3.51-4.09-4.34-2.27-.91-5.75.68-7,3.81-1.69,4.23-1.4,9.18-1.06,13.65a8.56,8.56,0,0,1-.19,3.33,2.7,2.7,0,0,1-2.76,1.39c-.86-.35-6.47-5.15-8.7-6.68-.57-.37-.14-.91.48-1a39.65,39.65,0,0,0,6.5,3.81c.8.32.92.37,1.06-.5.62-3.52-.06-11.4,2.14-16.91,1.74-4.35,5-6.73,9.33-5C603,35.63,604.51,36.16,604.82,37.14Z" transform="translate(-1.76 -1.62)"/>
    <path class="logo-txt-design" d="M618.34,45.11c.2.58-.55.85-.28,1.24.61.95.5,2.12-.21,3.54-.93,2.68-7.24,7.62-10.47,12-1.52,2-1.78,3.55.11,3.81C614,65.28,624.75,62,630.75,59c.9.08.9,1.14-.49,1.94C624.77,64,608.63,69,606,68a2.88,2.88,0,0,1-2.77-4.44c.47-4,12.78-15.22,12.48-19.11A2.12,2.12,0,0,1,618.34,45.11Zm7.31-12.93c.52-1.14,4.19-.17,4.83,0a2.5,2.5,0,0,1,.34,1.63c-.17.42-1.6,2.91-2.44,2.72C626.54,36.17,624.92,33.81,625.65,32.18Z" transform="translate(-1.76 -1.62)"/>
    <path class="logo-txt-design" d="M674.57,94.84c2.08.48,3.15.83,7.66-.13.7.56.43,1.23.11,1.32-4.34,1.25-7.14,1.69-9.8.7-.68-.27-3.16-2-3.09-4.37-.82-3.45,4.62-11.73,6.84-14.6.59-.76-.36-1.07-1.32-.6a84.94,84.94,0,0,0-14.17,8.76c-.61.46-4.39-.06-4-1.54-.59-.66.21-3.18,1.24-4.69a63.61,63.61,0,0,1,5.77-7.14c-5,1.06-11.55,1.34-18.44,1.86-4.77,9.25-21.75,26.62-28.4,28.51-.78.18-.16.22-1.08.56a6.78,6.78,0,0,1-4.37-.26c-3.31-1.32-6.48-5.29-3-13.87,5.29-13.23,19.83-15.81,34.09-17,1.61-4.55,1.78-8.89-.76-7.34a60.48,60.48,0,0,1-11.21,5.11c-1.71,2.51-6.15,3.65-7.38,3.16-2.08-.84-1.52-3.67.8-6.44,5.62-8.7,19.91-19.18,22.29-15.39,3.79.67,3.59,3.29,3,4.82-.86,2.14-2.69,4.25-6.15,2.94.46-.45,2.79-4.14,2.38-4.17-6.71.24-14.23,7.67-18.21,12.12-.92,1.06-1.61,3.13.91,1.44,4.67-1.19,15.23-8.56,16.27-8.14,4.16,1.67,3.87,6.31,1.91,11.57,7.53-.54,14.81-1,20.36-2.58,1.29-1.26,2.53-2.4,3.8-3.46a6.07,6.07,0,0,1,2,1.08,2.61,2.61,0,0,1,.33,2.2A5.81,5.81,0,0,1,671.05,71c-3,2.94-10.29,8.46-9.27,11.43,3.79-2.18,10.55-7,18.18-9.72a3,3,0,0,1,2.35.16c1.54.76,1.47,2.37-1.11,5.25-.35.35-.79-.32-.77.33C676.34,83.67,670.74,91.46,674.57,94.84Zm-33-20.09c-13.12,1.15-26.41,4-31.05,15.58-1.71,4.29-1,7.63.34,9.45a8.9,8.9,0,0,0,2,1.08C619.19,103.38,637.05,83.8,641.6,74.75Z" transform="translate(-1.76 -1.62)"/>
</g>
</svg>