<svg id="Layer_1" data-name="Layer 1" xmlns="http://www.w3.org/2000/svg" viewBox="0 0 781.71 647.41"><defs><style>.cls-1,.cls-4{fill:#98c1d9;}.cls-1{stroke:#ee6c4d;}.cls-1,.cls-5{stroke-miterlimit:10;}.cls-2{font-size:66px;font-family:Rollerscript-Smooth, Rollerscript;}.cls-2,.cls-5{fill:#ee6c4d;}.cls-3{letter-spacing:0.02em;}.cls-5{stroke:#fff;stroke-width:4px;}</style></defs><title>dinnaeken-games-logo</title><polygon class="cls-1" points="96.64 556.21 80.01 556.21 77.53 570.25 94.17 570.25 96.64 556.21"/><polygon class="cls-1" points="364.05 570.25 377.38 556.21 320.49 556.21 317.99 570.25 334.6 570.25 364.05 570.25"/><polygon class="cls-1" points="521.16 570.25 534.48 556.21 477.59 556.21 475.1 570.25 491.7 570.25 521.16 570.25"/><path class="cls-1" d="M403.67,684.12c.34-.33.76-.72,1.24-1.15h-1C403.84,683.35,403.75,683.75,403.67,684.12Z" transform="translate(19.85 -108.61)"/><path class="cls-1" d="M405.61,675.26l1.87-10.44h-16.7l-2.5,14h16.58C405.13,677.67,405.39,676.47,405.61,675.26Z" transform="translate(19.85 -108.61)"/><path class="cls-1" d="M451.12,664.82H427.07l-14.33,11.52c-1.15.93-2.16,1.76-3.07,2.52h21.26Z" transform="translate(19.85 -108.61)"/><polygon class="cls-1" points="597.55 556.28 582.43 556.28 580.05 570.25 595.12 570.25 597.55 556.28"/><path class="cls-1" d="M535.07,666.76A7.67,7.67,0,0,0,529,664c-4.9,0-9.72,2.95-11,10.15l-.83,4.75h29.12Z" transform="translate(19.85 -108.61)"/><polygon class="cls-1" points="163.18 556.28 148.06 556.28 145.68 570.25 160.75 570.25 163.18 556.28"/><path class="cls-1" d="M100.7,666.76a7.69,7.69,0,0,0-6.13-2.8c-4.89,0-9.72,2.95-10.94,10.15l-.84,4.75h29.12Z" transform="translate(19.85 -108.61)"/><polygon class="cls-1" points="229.99 556.28 214.87 556.28 212.49 570.25 227.56 570.25 229.99 556.28"/><path class="cls-1" d="M167.51,666.76a7.67,7.67,0,0,0-6.12-2.8c-4.9,0-9.72,2.95-10.94,10.15l-.84,4.75h29.12Z" transform="translate(19.85 -108.61)"/><path class="cls-1" d="M264.35,670.08c-1.8-3.46-4.53-6.12-9.57-6.12-5.19,0-8.93,2.88-11.81,6.12l-7.86,8.78h33.83Z" transform="translate(19.85 -108.61)"/><path class="cls-1" d="M46.8,678.86c-3-8.54-12.1-14-24.73-14H-10.74l-2.47,14h60Z" transform="translate(19.85 -108.61)"/><path class="cls-1" d="M47.85,685.27a19.34,19.34,0,0,0-.13-2.3H29.92a7.11,7.11,0,0,1,1.16,4,11.55,11.55,0,0,1-2.45,7.63H45.85A23,23,0,0,0,47.85,685.27Z" transform="translate(19.85 -108.61)"/><path class="cls-1" d="M-16.8,699.17-19.26,713H13.58c12.56,0,23.69-5.52,29.66-13.82Z" transform="translate(19.85 -108.61)"/><polygon class="cls-1" points="22.63 574.35 5.92 574.35 3.85 586.02 20.56 586.02 22.63 574.35"/><polygon class="cls-1" points="93.44 574.35 76.81 574.35 74.75 586.02 91.39 586.02 93.44 574.35"/><polygon class="cls-1" points="71.51 604.38 88.15 604.38 90.58 590.55 73.95 590.55 71.51 604.38"/><path class="cls-1" d="M402,694.63h1.37a11.11,11.11,0,0,1-1.14-1.73C402.15,693.45,402.08,694,402,694.63Z" transform="translate(19.85 -108.61)"/><polygon class="cls-1" points="314.38 590.55 311.92 604.38 358.29 604.38 371.47 590.55 331.07 590.55 314.38 590.55"/><polygon class="cls-1" points="359.88 586.02 371.18 574.35 317.26 574.35 315.19 586.02 331.87 586.02 359.88 586.02"/><polygon class="cls-1" points="516.98 586.02 528.29 574.35 474.37 574.35 472.29 586.02 488.97 586.02 516.98 586.02"/><polygon class="cls-1" points="471.48 590.55 469.02 604.38 515.4 604.38 528.57 590.55 488.18 590.55 471.48 590.55"/><path class="cls-1" d="M408.42,700.61,419.08,713h25.13l-13.89-13.82H407.18Z" transform="translate(19.85 -108.61)"/><path class="cls-1" d="M382.21,713h16.71l2.37-13.39c0-.14,0-.29.07-.43H384.67Z" transform="translate(19.85 -108.61)"/><path class="cls-1" d="M425.75,694.63,424.12,693a6.49,6.49,0,0,1,.83-10l.11-.07H387.55l-2.07,11.66Z" transform="translate(19.85 -108.61)"/><polygon class="cls-1" points="531.02 604.38 546.14 604.38 548.54 590.55 533.45 590.55 531.02 604.38"/><path class="cls-1" d="M553.86,711.05a7.52,7.52,0,0,0,6.12,2.88c4.83,0,9.65-2.95,10.95-10.15l.8-4.61h-29Z" transform="translate(19.85 -108.61)"/><polygon class="cls-1" points="558.36 586.02 592.37 586.02 594.4 574.35 579.35 574.35 577.89 582.92 569.95 574.35 536.3 574.35 534.25 586.02 549.33 586.02 550.75 577.88 558.36 586.02"/><polygon class="cls-1" points="116.37 577.88 123.98 586.02 158 586.02 160.03 574.35 144.98 574.35 143.52 582.92 135.57 574.35 101.92 574.35 99.87 586.02 114.96 586.02 116.37 577.88"/><path class="cls-1" d="M119.49,711.05a7.52,7.52,0,0,0,6.12,2.88c4.82,0,9.65-2.95,10.94-10.15l.81-4.61h-29Z" transform="translate(19.85 -108.61)"/><polygon class="cls-1" points="96.64 604.38 111.76 604.38 114.17 590.55 99.08 590.55 96.64 604.38"/><polygon class="cls-1" points="183.19 577.88 190.8 586.02 224.81 586.02 226.85 574.35 211.79 574.35 210.33 582.92 202.39 574.35 168.74 574.35 166.69 586.02 181.77 586.02 183.19 577.88"/><path class="cls-1" d="M186.3,711.05a7.53,7.53,0,0,0,6.12,2.88c4.83,0,9.65-2.95,11-10.15l.8-4.61h-29Z" transform="translate(19.85 -108.61)"/><polygon class="cls-1" points="163.46 604.38 178.58 604.38 180.98 590.55 165.89 590.55 163.46 604.38"/><path class="cls-1" d="M251.56,683.8,257,694.63h20.16L271.08,683H231.44L221,694.63h19.77l9.83-11A.58.58,0,0,1,251.56,683.8Z" transform="translate(19.85 -108.61)"/><polygon class="cls-1" points="249.64 604.38 306.6 604.38 299.39 590.55 262.17 590.55 249.64 604.38"/><polygon class="cls-1" points="224.44 604.38 244.17 604.38 256.57 590.55 236.81 590.55 224.44 604.38"/><text class="cls-2" transform="matrix(0.93, 0.37, -0.37, 0.93, 523.47, 538.17)"><tspan class="cls-3">ga</tspan><tspan x="69.89" y="0">mes</tspan></text><path class="cls-4" d="M288,189.59c-36.2-2-34.75,31.93-34.75,31.93h-75.3s1.45-33.92-34.75-31.93S14.3,319.3,62.08,369.18s71-10,89.78-31.92,63.71-21.95,63.71-21.95,44.89,0,63.71,21.95,42,81.81,89.78,31.92S324.17,191.59,288,189.59ZM177.47,275.2a8.62,8.62,0,0,1-8.62,8.62H156.32a8.61,8.61,0,0,0-8.62,8.61V305a8.61,8.61,0,0,1-8.61,8.61H133a8.62,8.62,0,0,1-8.61-8.61V292.43a8.61,8.61,0,0,0-8.62-8.61H103.28a8.62,8.62,0,0,1-8.62-8.62v-6a8.62,8.62,0,0,1,8.62-8.62h12.53a8.62,8.62,0,0,0,8.62-8.62V239.39a8.61,8.61,0,0,1,8.61-8.61h6.05a8.6,8.6,0,0,1,8.61,8.61v12.53a8.62,8.62,0,0,0,8.62,8.62h12.53a8.62,8.62,0,0,1,8.62,8.62Z" transform="translate(19.85 -108.61)"/><path class="cls-5" d="M335.87,254.86c-3-.53-4.45.47-5.53,3.09l-6.23,18.92L265.94,266.7,275.27,239c7.54-19.92,25.37-30.85,52.64-26.08l45.14,7.89c13.33,2.33,25-17.7,26.54-26.49,1.11-6.36-3.11-9-12.81-10.67L298,168.09l21-57.22,83,14.51c58.16,10.17,76.11,36.1,71.29,63.67-7.73,44.23-44.37,82.06-108,70.94Zm-66,94.95c-19.08-3.34-31-15.72-27.9-33.29,4-23,27.47-33.91,50.5-29.89,18.78,3.28,30.87,16.32,27.85,33.59C316.15,343.86,292.86,353.83,269.83,349.81Z" transform="translate(19.85 -108.61)"/></svg>